<svg width="621" height="644" viewBox="0 0 621 644" fill="none" xmlns="http://www.w3.org/2000/svg">
<path d="M310.121 643.192C267.118 643.192 226.695 635.167 188.853 619.115C151.01 602.491 118.041 579.561 89.946 550.325C61.8508 520.516 39.776 486.12 23.7216 447.139C8.24053 408.158 0.5 366.023 0.5 320.736C0.5 275.449 8.24053 233.601 23.7216 195.193C39.776 156.212 61.8508 122.103 89.946 92.8674C118.041 63.6313 151.01 40.9877 188.853 24.9366C226.695 8.31219 267.118 0 310.121 0C364.591 0 413.901 11.1785 458.051 33.5355C502.774 55.8924 539.47 87.1348 568.138 127.263C595.311 165.296 612.696 208.994 620.295 258.356C620.964 262.697 617.567 266.564 613.175 266.564H489.235C485.644 266.564 482.604 263.939 481.95 260.408C476.904 233.15 466.644 209.119 451.17 188.314C435.116 165.957 415.048 148.473 390.966 135.861C367.458 123.25 341.083 116.944 311.841 116.944C284.893 116.944 260.524 121.817 238.736 131.562C217.521 141.307 198.887 155.352 182.832 173.696C167.351 192.04 155.31 213.824 146.71 239.047C138.683 263.697 134.669 290.927 134.669 320.736C134.669 351.119 138.683 378.922 146.71 404.145C155.31 428.795 167.351 450.292 182.832 468.636C198.887 486.98 217.521 501.312 238.736 511.63C260.524 521.375 284.893 526.248 311.841 526.248C341.083 526.248 367.745 519.942 391.826 507.331C415.908 494.146 435.689 476.375 451.17 454.018C466.119 432.667 476.345 408.583 481.849 381.766C482.558 378.307 485.566 375.769 489.097 375.769H613.098C617.517 375.769 620.921 379.68 620.212 384.042C612.099 433.928 594.454 477.891 567.278 515.93C538.61 556.057 502.201 587.3 458.051 609.657C413.901 632.014 364.591 643.192 310.121 643.192Z" fill="url(#paint0_linear_13272_16548)"/>
<defs>
<linearGradient id="paint0_linear_13272_16548" x1="310.64" y1="71.8506" x2="310.64" y2="1525.69" gradientUnits="userSpaceOnUse">
<stop stop-color="white"/>
<stop offset="1" stop-color="#97A2D8"/>
</linearGradient>
</defs>
</svg>
